<?xml version="1.0" encoding="UTF-8"?>
<svg id="service" data-name="Layer 5" xmlns="http://www.w3.org/2000/svg" viewBox="0 0 24 24">
  <path
    d="M7,18.5l6.95,1.9,5.95-1.85c-.08-.15-.2-.28-.36-.39s-.34-.16-.54-.16h-5.05c-.45,0-.81-.02-1.08-.05-.27-.03-.54-.1-.83-.2l-2.33-.78,.55-1.95,2.03,.68c.28,.08,.62,.15,1,.2s.95,.08,1.7,.1c0-.18-.05-.36-.16-.53s-.24-.28-.39-.33l-5.85-2.15h-1.6v5.5Zm-6,3.5V11h7.6c.12,0,.23,.01,.35,.04s.23,.05,.33,.09l5.88,2.18c.55,.2,1,.55,1.34,1.05s.51,1.05,.51,1.65h2c.83,0,1.54,.28,2.13,.83s.88,1.28,.88,2.18v1l-8,2.5-7-1.95v1.45H1Zm2-2h2v-7H3v7Z" />
  <path
    d="M15.01,13l-.22-1.76c-.12-.05-.23-.1-.34-.17s-.21-.13-.31-.21l-1.64,.69-1.51-2.61,1.42-1.07c0-.06-.01-.13-.01-.19v-.37c0-.06,0-.12,.01-.19l-1.42-1.07,1.51-2.61,1.64,.69c.1-.07,.21-.14,.32-.21s.22-.12,.33-.17l.22-1.76h3.03l.22,1.76c.12,.05,.23,.1,.34,.17s.21,.13,.31,.21l1.64-.69,1.51,2.61-1.42,1.07c0,.06,.01,.13,.01,.19v.37c0,.06,0,.12-.03,.19l1.42,1.07-1.51,2.61-1.62-.69c-.1,.07-.21,.14-.32,.21s-.22,.12-.33,.17l-.22,1.76h-3.03Zm.96-1.1h1.09l.19-1.46c.28-.07,.55-.18,.79-.32s.47-.31,.67-.52l1.36,.56,.54-.94-1.18-.89c.05-.13,.08-.26,.1-.41s.03-.29,.03-.43,0-.29-.03-.43c-.02-.14-.05-.28-.1-.41l1.18-.89-.54-.94-1.36,.58c-.2-.21-.42-.39-.67-.53s-.51-.25-.79-.32l-.18-1.46h-1.09l-.19,1.46c-.28,.07-.55,.18-.79,.32s-.47,.31-.67,.52l-1.36-.56-.54,.94,1.18,.88c-.05,.14-.08,.28-.1,.41s-.03,.28-.03,.44c0,.15,0,.29,.03,.43s.05,.28,.1,.41l-1.18,.89,.54,.94,1.36-.58c.2,.21,.42,.39,.67,.53s.51,.25,.79,.32l.18,1.46Zm.58-2.48c.53,0,.99-.19,1.36-.56s.56-.83,.56-1.36-.19-.99-.56-1.36-.83-.56-1.36-.56-1,.19-1.37,.56-.56,.83-.56,1.36,.19,.99,.56,1.36,.83,.56,1.37,.56Zm5.49-.48" />
</svg>