<svg width="500" height="500" viewBox="0 0 500 500" fill="none" xmlns="http://www.w3.org/2000/svg">
    <path
        d="M180.132 217.934C176.643 189.568 157.95 180.301 163.094 162.104C172.443 129.03 242.917 128.799 254.42 128.761C291.738 128.639 352.28 128.44 377.097 177.612C388.534 200.272 371.836 213.734 379.142 271.438C383.479 305.693 389.721 309.83 386.639 324.942C377.333 370.565 309.122 388.322 299.401 390.852C226.63 409.797 134.627 383.386 127.654 340.45C121.417 302.05 187.056 274.203 180.132 217.934Z"
        fill="#E6F1FF" />
    <path
        d="M146.737 304.006C142.691 293.982 122.058 242.875 141.285 211.731C152.435 193.671 166.489 199.333 193.764 179.164C230.895 151.706 225.725 125.773 252.376 110.151C287.871 89.3456 347.428 105.809 364.83 142.719C381.657 178.407 347.15 207.927 363.467 260.582C375.745 300.202 401.39 303.2 400.952 328.819C400.321 365.764 346.249 402.886 297.358 407.912C230.76 414.757 170.313 362.404 146.737 304.006Z"
        fill="#CCE2FF" />
    <path
        d="M144.421 244.467H84.0995C81.0702 244.467 78.614 242.011 78.614 238.982V212.304C78.614 209.274 81.0697 206.818 84.0995 206.818H144.421C147.45 206.818 149.907 209.274 149.907 212.304V238.982C149.907 242.011 147.45 244.467 144.421 244.467Z"
        fill="#C9E3FF" />
    <path
        d="M88.0221 228.394C89.5417 228.394 90.7736 227.162 90.7736 225.642C90.7736 224.123 89.5417 222.891 88.0221 222.891C86.5024 222.891 85.2705 224.123 85.2705 225.642C85.2705 227.162 86.5024 228.394 88.0221 228.394Z"
        fill="white" />
    <path
        d="M98.9869 228.394C100.507 228.394 101.738 227.162 101.738 225.642C101.738 224.123 100.507 222.891 98.9869 222.891C97.4673 222.891 96.2354 224.123 96.2354 225.642C96.2354 227.162 97.4673 228.394 98.9869 228.394Z"
        fill="white" />
    <path
        d="M109.952 228.394C111.472 228.394 112.704 227.162 112.704 225.642C112.704 224.123 111.472 222.891 109.952 222.891C108.432 222.891 107.2 224.123 107.2 225.642C107.2 227.162 108.432 228.394 109.952 228.394Z"
        fill="white" />
    <path
        d="M120.917 228.394C122.436 228.394 123.668 227.162 123.668 225.642C123.668 224.123 122.436 222.891 120.917 222.891C119.397 222.891 118.165 224.123 118.165 225.642C118.165 227.162 119.397 228.394 120.917 228.394Z"
        fill="white" />
    <path
        d="M131.882 228.394C133.402 228.394 134.633 227.162 134.633 225.642C134.633 224.123 133.402 222.891 131.882 222.891C130.362 222.891 129.13 224.123 129.13 225.642C129.13 227.162 130.362 228.394 131.882 228.394Z"
        fill="white" />
    <path
        d="M142.847 228.394C144.367 228.394 145.599 227.162 145.599 225.642C145.599 224.123 144.367 222.891 142.847 222.891C141.328 222.891 140.096 224.123 140.096 225.642C140.096 227.162 141.328 228.394 142.847 228.394Z"
        fill="white" />
    <path
        d="M132.146 116.681H71.8249C68.7956 116.681 66.3394 114.225 66.3394 111.195V84.5173C66.3394 81.4879 68.795 79.0317 71.8249 79.0317H132.146C135.176 79.0317 137.632 81.4874 137.632 84.5173V111.195C137.631 114.225 135.176 116.681 132.146 116.681Z"
        fill="#C9E3FF" />
    <path
        d="M110.618 88.2537H101.365C101.164 88.2537 101.002 87.9453 101.002 87.5651C101.002 87.1849 101.164 86.8765 101.365 86.8765H110.618C110.818 86.8765 110.98 87.1849 110.98 87.5651C110.98 87.9453 110.818 88.2537 110.618 88.2537ZM126.961 88.2537H112.625C112.425 88.2537 112.263 87.9453 112.263 87.5651C112.263 87.1849 112.425 86.8765 112.625 86.8765H126.961C127.162 86.8765 127.324 87.1849 127.324 87.5651C127.324 87.9453 127.162 88.2537 126.961 88.2537ZM132.326 88.2537H129.318C129.144 88.2537 129.003 87.9855 129.003 87.6545C129.003 87.3235 129.144 87.0553 129.318 87.0553H132.326C132.501 87.0553 132.642 87.3235 132.642 87.6545C132.642 87.9855 132.501 88.2537 132.326 88.2537ZM132.28 95.3697H101.365C101.164 95.3697 101.002 95.0613 101.002 94.6811C101.002 94.3008 101.164 93.9924 101.365 93.9924H132.28C132.48 93.9924 132.642 94.3008 132.642 94.6811C132.642 95.0613 132.479 95.3697 132.28 95.3697ZM110.618 108.836H101.365C101.164 108.836 101.002 108.528 101.002 108.147C101.002 107.767 101.164 107.459 101.365 107.459H110.618C110.818 107.459 110.98 107.767 110.98 108.147C110.98 108.528 110.818 108.836 110.618 108.836ZM126.961 108.836H112.625C112.425 108.836 112.263 108.528 112.263 108.147C112.263 107.767 112.425 107.459 112.625 107.459H126.961C127.162 107.459 127.324 107.767 127.324 108.147C127.324 108.528 127.162 108.836 126.961 108.836ZM116.748 101.72H101.365C101.164 101.72 101.002 101.412 101.002 101.032C101.002 100.651 101.164 100.343 101.365 100.343H116.748C116.949 100.343 117.111 100.651 117.111 101.032C117.111 101.412 116.949 101.72 116.748 101.72ZM132.28 101.72H120.435C120.234 101.72 120.072 101.412 120.072 101.032C120.072 100.651 120.234 100.343 120.435 100.343H132.28C132.48 100.343 132.642 100.651 132.642 101.032C132.642 101.412 132.479 101.72 132.28 101.72ZM132.326 108.836H129.318C129.144 108.836 129.003 108.568 129.003 108.237C129.003 107.906 129.144 107.638 129.318 107.638H132.326C132.501 107.638 132.642 107.906 132.642 108.237C132.642 108.568 132.501 108.836 132.326 108.836Z"
        fill="white" />
    <path
        d="M93.5624 106.82C98.8209 101.562 98.8207 93.0358 93.5621 87.7773C88.3034 82.5189 79.7776 82.519 74.5191 87.7777C69.2606 93.0363 69.2608 101.562 74.5194 106.821C79.7781 112.079 88.3039 112.079 93.5624 106.82Z"
        fill="white" />
    <path
        d="M88.6717 95.4849C89.7765 92.8177 88.5099 89.7598 85.8427 88.655C83.1755 87.5502 80.1177 88.8168 79.0129 91.484C77.9081 94.1513 79.1747 97.2091 81.8419 98.3139C84.5091 99.4187 87.5669 98.1521 88.6717 95.4849Z"
        fill="#C9E3FF" />
    <path
        d="M88.6363 98.759C88.2153 98.4305 87.6277 98.442 87.2138 98.779C86.3142 99.5129 85.1639 99.9554 83.9092 99.9554C82.6957 99.9554 81.5791 99.542 80.6935 98.8474C80.2721 98.5164 79.6744 98.5234 79.2675 98.872C78.2127 99.7761 77.5708 101.081 77.5708 102.775V102.928C77.5708 103.804 78.2815 104.515 79.158 104.515H88.9266C89.8031 104.515 90.5138 103.804 90.5138 102.928V102.775C90.5138 101.008 89.7966 99.6651 88.6363 98.759ZM210.388 180.136H143.787C140.302 180.136 137.476 177.31 137.476 173.825V147.509C137.476 144.024 140.302 141.198 143.787 141.198H210.388C213.873 141.198 216.698 144.024 216.698 147.509V173.825C216.698 177.31 213.873 180.136 210.388 180.136Z"
        fill="#C9E3FF" />
    <path
        d="M195.92 158.118H147.61C146.055 158.118 144.794 156.857 144.794 155.302C144.794 153.746 146.055 152.485 147.61 152.485H195.92C197.475 152.485 198.736 153.746 198.736 155.302C198.736 156.857 197.475 158.118 195.92 158.118ZM195.919 171.082H147.758C146.202 171.082 144.942 169.821 144.942 168.266C144.942 166.71 146.202 165.449 147.758 165.449H195.919C197.475 165.449 198.735 166.71 198.735 168.266C198.736 169.821 197.475 171.082 195.919 171.082ZM209.331 158.118H204.413C202.858 158.118 201.597 156.857 201.597 155.302C201.597 153.746 202.858 152.485 204.413 152.485H209.331C210.886 152.485 212.147 153.746 212.147 155.302C212.147 156.857 210.886 158.118 209.331 158.118ZM209.331 171.082H204.413C202.858 171.082 201.597 169.821 201.597 168.266C201.597 166.71 202.858 165.449 204.413 165.449H209.331C210.886 165.449 212.147 166.71 212.147 168.266C212.147 169.821 210.886 171.082 209.331 171.082Z"
        fill="white" />
    <path
        d="M149.987 166.506L150.151 167.658C150.159 167.715 150.218 167.751 150.273 167.731L151.365 167.329C151.463 167.293 151.535 167.423 151.453 167.487L150.538 168.205C150.492 168.241 150.491 168.31 150.536 168.347L151.429 169.092C151.51 169.159 151.433 169.286 151.336 169.247L150.257 168.813C150.203 168.791 150.143 168.825 150.132 168.882L149.935 170.029C149.917 170.131 149.768 170.129 149.754 170.026L149.59 168.874C149.581 168.816 149.522 168.781 149.467 168.801L148.375 169.203C148.278 169.239 148.205 169.109 148.288 169.045L149.203 168.327C149.248 168.291 149.249 168.222 149.205 168.185L148.311 167.44C148.231 167.373 148.307 167.246 148.404 167.285L149.484 167.719C149.538 167.741 149.598 167.707 149.608 167.65L149.806 166.503C149.824 166.4 149.972 166.402 149.987 166.506ZM155.131 166.506L155.295 167.658C155.303 167.715 155.362 167.751 155.417 167.731L156.509 167.329C156.607 167.293 156.679 167.423 156.597 167.487L155.682 168.205C155.636 168.241 155.635 168.31 155.68 168.347L156.573 169.092C156.654 169.159 156.577 169.286 156.48 169.247L155.401 168.813C155.347 168.791 155.286 168.825 155.276 168.882L155.079 170.029C155.061 170.131 154.912 170.129 154.898 170.026L154.733 168.874C154.725 168.816 154.666 168.781 154.611 168.801L153.519 169.203C153.421 169.239 153.349 169.109 153.432 169.045L154.347 168.327C154.392 168.291 154.393 168.222 154.349 168.185L153.455 167.44C153.375 167.373 153.451 167.246 153.548 167.285L154.627 167.719C154.682 167.741 154.742 167.707 154.752 167.65L154.95 166.503C154.968 166.4 155.116 166.402 155.131 166.506ZM160.275 166.506L160.439 167.658C160.447 167.715 160.506 167.751 160.561 167.731L161.653 167.329C161.751 167.293 161.823 167.423 161.741 167.487L160.826 168.205C160.78 168.241 160.779 168.31 160.824 168.347L161.717 169.092C161.798 169.159 161.721 169.286 161.624 169.247L160.545 168.813C160.491 168.791 160.43 168.825 160.421 168.882L160.222 170.029C160.205 170.131 160.056 170.129 160.042 170.026L159.877 168.874C159.869 168.816 159.81 168.781 159.755 168.801L158.663 169.203C158.565 169.239 158.493 169.109 158.575 169.045L159.491 168.327C159.536 168.291 159.537 168.222 159.493 168.185L158.599 167.44C158.519 167.373 158.595 167.246 158.692 167.285L159.771 167.719C159.826 167.741 159.886 167.707 159.896 167.65L160.094 166.503C160.112 166.4 160.26 166.402 160.275 166.506ZM165.419 166.506L165.583 167.658C165.591 167.715 165.651 167.751 165.705 167.731L166.797 167.329C166.895 167.293 166.968 167.423 166.885 167.487L165.97 168.205C165.924 168.241 165.923 168.31 165.968 168.347L166.862 169.092C166.942 169.159 166.866 169.286 166.769 169.247L165.689 168.813C165.635 168.791 165.575 168.825 165.565 168.882L165.367 170.029C165.349 170.131 165.201 170.129 165.186 170.026L165.022 168.874C165.014 168.816 164.955 168.781 164.9 168.801L163.808 169.203C163.71 169.239 163.638 169.109 163.72 169.045L164.635 168.327C164.681 168.291 164.682 168.222 164.637 168.185L163.744 167.44C163.663 167.373 163.74 167.246 163.836 167.285L164.916 167.719C164.97 167.741 165.03 167.707 165.04 167.65L165.238 166.503C165.256 166.4 165.404 166.402 165.419 166.506ZM170.563 166.506L170.727 167.658C170.735 167.715 170.795 167.751 170.849 167.731L171.941 167.329C172.039 167.293 172.112 167.423 172.029 167.487L171.114 168.205C171.068 168.241 171.067 168.31 171.112 168.347L172.006 169.092C172.086 169.159 172.01 169.286 171.913 169.247L170.833 168.813C170.779 168.791 170.719 168.825 170.709 168.882L170.511 170.029C170.493 170.131 170.345 170.129 170.33 170.026L170.166 168.874C170.158 168.816 170.098 168.781 170.044 168.801L168.952 169.203C168.854 169.239 168.782 169.109 168.864 169.045L169.779 168.327C169.825 168.291 169.826 168.222 169.781 168.185L168.888 167.44C168.807 167.373 168.883 167.246 168.98 167.285L170.06 167.719C170.114 167.741 170.174 167.707 170.184 167.65L170.382 166.503C170.4 166.4 170.549 166.402 170.563 166.506ZM148.804 155.302C148.804 154.937 149.1 154.641 149.464 154.641C149.829 154.641 150.125 154.937 150.125 155.302C150.125 155.667 149.829 155.962 149.464 155.962C149.1 155.962 148.804 155.667 148.804 155.302ZM150.937 155.302C150.937 154.937 151.233 154.641 151.597 154.641C151.962 154.641 152.258 154.937 152.258 155.302C152.258 155.667 151.962 155.962 151.597 155.962C151.233 155.962 150.937 155.667 150.937 155.302ZM153.07 155.302C153.07 154.937 153.366 154.641 153.73 154.641C154.095 154.641 154.391 154.937 154.391 155.302C154.391 155.667 154.095 155.962 153.73 155.962C153.365 155.962 153.07 155.667 153.07 155.302ZM155.203 155.302C155.203 154.937 155.498 154.641 155.863 154.641C156.228 154.641 156.524 154.937 156.524 155.302C156.524 155.667 156.228 155.962 155.863 155.962C155.498 155.962 155.203 155.667 155.203 155.302ZM157.335 155.302C157.335 154.937 157.631 154.641 157.996 154.641C158.361 154.641 158.656 154.937 158.656 155.302C158.656 155.667 158.361 155.962 157.996 155.962C157.631 155.962 157.335 155.667 157.335 155.302ZM159.468 155.302C159.468 154.937 159.764 154.641 160.129 154.641C160.493 154.641 160.789 154.937 160.789 155.302C160.789 155.667 160.493 155.962 160.129 155.962C159.764 155.962 159.468 155.667 159.468 155.302ZM161.601 155.302C161.601 154.937 161.897 154.641 162.262 154.641C162.626 154.641 162.922 154.937 162.922 155.302C162.922 155.667 162.626 155.962 162.262 155.962C161.897 155.962 161.601 155.667 161.601 155.302ZM163.734 155.302C163.734 154.937 164.03 154.641 164.395 154.641C164.759 154.641 165.055 154.937 165.055 155.302C165.055 155.667 164.759 155.962 164.395 155.962C164.03 155.962 163.734 155.667 163.734 155.302Z"
        fill="#C9E3FF" />
    <path
        d="M461.217 299.986C457.761 292.41 452.832 285.547 449.738 277.816C444.018 263.521 445.01 247.531 442.359 232.363C439.707 217.196 431.235 200.914 416.194 197.619C405.047 195.176 393.33 200.919 385.818 209.509C378.306 218.099 374.269 229.131 370.935 240.045C368.569 247.793 366.232 256.036 360.323 261.576C356.359 265.294 351.133 267.426 347.081 271.048C340.67 276.778 337.874 285.807 338.289 294.396C338.704 302.983 342.002 311.196 346.174 318.714C348.672 323.215 351.531 327.615 352.842 332.593C354.616 339.329 353.393 346.466 354.01 353.405C355.017 364.738 361.237 375.503 370.552 382.036C379.867 388.57 392.106 390.752 403.105 387.84C416.758 397.159 448.739 377.909 457.323 359.958C466.326 341.132 469.879 318.971 461.217 299.986Z"
        fill="#5993D1" />
    <path
        d="M457.32 359.96C448.738 377.909 416.758 397.16 403.106 387.837C392.105 390.75 379.864 388.571 370.553 382.034C361.337 375.575 355.15 364.968 354.049 353.773C369.18 357.386 395.924 342.978 404.768 328.002C415.379 310.036 420.855 288.268 413.884 268.601C411.099 260.752 406.791 253.487 404.384 245.51C399.932 230.774 402.316 214.931 400.999 199.589C400.982 199.366 400.96 199.144 400.932 198.916C405.829 197.098 411.071 196.493 416.196 197.615C431.233 200.912 439.704 217.194 442.356 232.363C445.008 247.527 444.018 263.52 449.738 277.818C452.834 285.544 457.759 292.409 461.217 299.986C469.878 318.97 466.326 341.133 457.32 359.96Z"
        fill="#4882C2" />
    <path
        d="M461.217 299.985C457.761 292.41 452.832 285.547 449.738 277.816C444.018 263.521 445.01 247.531 442.359 232.363C440.289 220.524 434.673 208.006 425.154 201.515C427.064 207.235 427.99 213.439 428.091 219.35C428.352 234.745 424.886 250.387 428.314 265.398C430.168 273.516 433.97 281.061 436.207 289.082C441.811 309.183 434.856 330.522 423.036 347.72C411.765 364.117 377.18 378.162 365.143 366.833C362.692 367.086 360.222 367.079 357.771 366.856C360.678 372.881 365.073 378.193 370.552 382.036C379.867 388.57 392.107 390.751 403.105 387.84C416.758 397.159 448.738 377.909 457.323 359.958C466.326 341.132 469.879 318.97 461.217 299.985Z"
        fill="#3876B8" />
    <path
        d="M423.157 275.834C416.838 281.915 410.818 288.296 405.017 294.871V258.486C405.017 256.705 402.248 256.702 402.248 258.486V298.121C402.156 298.395 402.174 298.667 402.248 298.927V341.359C395.149 331.646 388.049 321.932 380.949 312.219C379.908 310.795 377.505 312.175 378.559 313.617C386.244 324.131 393.929 334.644 401.614 345.159C401.792 345.402 402.016 345.539 402.249 345.632V445.445C402.249 447.226 405.018 447.229 405.018 445.445V298.996C411.396 291.632 418.094 284.548 425.114 277.792C426.4 276.554 424.441 274.598 423.157 275.834Z"
        fill="#194C85" />
    <path
        d="M498.834 448.025H1.16582C0.521879 448.025 0 447.503 0 446.859C0 446.215 0.521879 445.693 1.16582 445.693H498.834C499.478 445.693 500 446.215 500 446.859C500 447.503 499.478 448.025 498.834 448.025ZM183.537 465.588H37.6406C36.9967 465.588 36.4748 465.066 36.4748 464.422C36.4748 463.778 36.9967 463.256 37.6406 463.256H183.537C184.181 463.256 184.703 463.778 184.703 464.422C184.703 465.066 184.181 465.588 183.537 465.588ZM274.669 465.588H207.897C207.253 465.588 206.731 465.066 206.731 464.422C206.731 463.778 207.253 463.256 207.897 463.256H274.669C275.312 463.256 275.834 463.778 275.834 464.422C275.834 465.066 275.312 465.588 274.669 465.588Z"
        fill="#C8CBE3" />
    <path
        d="M201.521 439.565C200.038 442.217 197.412 444.002 194.882 445.694H108.279C104.726 445.05 101.684 441.976 98.5469 440.165C95.4292 438.366 92.8665 435.173 92.8223 431.563C92.7781 426.993 97.467 422.986 101.98 423.756C103.602 424.04 105.217 424.816 106.808 424.425C109.459 423.756 110.298 420.278 109.622 417.621C108.947 414.983 107.319 412.616 106.928 409.921C106.189 404.746 111.169 399.577 116.369 400.133C120.939 400.625 124.296 404.55 126.878 408.363C128.253 410.413 130.027 412.768 132.482 412.648C134.414 412.541 135.947 410.83 136.528 408.987C137.115 407.144 136.995 405.169 137.007 403.219C137.084 397.734 138.434 392.25 140.939 387.346C142.902 383.521 145.957 379.792 150.198 379.072C154.818 378.308 159.419 381.59 161.318 385.863C163.237 390.136 162.921 395.078 161.785 399.61C160.946 402.948 159.804 406.848 161.969 409.511C162.461 410.13 163.092 410.61 163.78 410.981C166.462 412.434 170.028 412.029 172.338 410.023C173.404 409.095 174.194 407.883 175.273 406.98C177.974 404.733 182.278 404.941 184.974 407.176C187.668 409.411 188.723 413.305 187.851 416.706C187.359 418.644 186.305 420.398 185.693 422.298C185.062 424.204 184.929 426.451 186.109 428.054C189.139 432.163 196.485 428.13 200.53 431.247C202.928 433.102 203.004 436.915 201.521 439.565Z"
        fill="#4882C2" />
    <path
        d="M99.4143 424.769C100.119 424.591 100.692 424.211 101.146 423.705C99.7393 423.643 98.3455 424.02 97.1113 424.706C97.8833 424.873 98.6518 424.956 99.4143 424.769ZM153.924 386.27C155.843 390.535 155.527 395.469 154.392 399.994C153.552 403.326 152.409 407.22 154.574 409.879C155.067 410.497 155.698 410.976 156.386 411.347C158.703 412.599 161.678 412.466 163.935 411.115C163.883 411.089 163.83 411.067 163.779 411.039C163.092 410.668 162.46 410.189 161.968 409.571C159.803 406.913 160.945 403.018 161.785 399.686C162.921 395.162 163.236 390.228 161.318 385.963C159.418 381.697 154.817 378.42 150.198 379.183C149.265 379.341 148.393 379.651 147.574 380.069C150.336 381.176 152.696 383.512 153.924 386.27ZM200.53 431.271C196.485 428.159 189.138 432.185 186.109 428.083C184.929 426.483 185.062 424.24 185.693 422.337C186.305 420.44 187.359 418.689 187.851 416.754C188.722 413.358 187.668 409.471 184.973 407.24C182.502 405.194 178.681 404.856 175.98 406.542C176.553 406.81 177.093 407.145 177.58 407.547C180.275 409.778 181.328 413.665 180.457 417.061C179.965 418.995 178.911 420.747 178.299 422.644C177.668 424.547 177.536 426.79 178.715 428.39C181.745 432.492 189.091 428.466 193.137 431.578C195.535 433.43 195.61 437.236 194.127 439.882C192.734 442.369 190.331 444.092 187.946 445.692H194.882C197.413 444.004 200.038 442.221 201.521 439.574C203.004 436.93 202.928 433.124 200.53 431.271ZM119.484 408.733C120.86 410.78 122.633 413.13 125.088 413.011C126.553 412.93 127.787 411.928 128.552 410.646C127.932 409.955 127.378 409.17 126.878 408.425C124.296 404.619 120.938 400.7 116.369 400.209C114.714 400.033 113.083 400.437 111.65 401.234C114.894 402.627 117.435 405.712 119.484 408.733Z"
        fill="#376EA8" />
    <path
        d="M156.507 417.752C156.247 419.616 155.177 421.315 153.613 422.364C151.94 423.487 149.603 423.907 148.558 425.793C148.527 425.85 148.485 425.875 148.444 425.897C147.951 427.912 147.458 429.928 147.032 431.948C146.092 436.405 145.478 441.133 145.993 445.693H145.483C145.338 444.416 145.28 443.122 145.291 441.834C145.312 439.647 145.54 437.491 145.878 435.351C145.779 435.351 145.686 435.299 145.66 435.164C145.457 434.032 144.673 433.164 143.894 432.364C142.984 431.424 142.071 430.494 141.156 429.559C139.546 427.897 137.904 425.964 137.899 423.518C137.899 423.185 138.414 423.185 138.414 423.518C138.419 426.042 140.299 427.938 141.946 429.627C142.824 430.53 143.727 431.418 144.59 432.343C145.181 432.982 145.737 433.684 146.018 434.51C146.86 429.663 148.257 424.894 149.275 420.085C149.925 417.02 150.418 413.83 150.501 410.651C150.481 410.64 150.459 410.63 150.438 410.614C148.969 409.191 147.327 407.493 147.493 405.275C147.519 404.947 148.033 404.942 148.007 405.275C147.862 407.207 149.213 408.693 150.506 409.96C150.532 406.277 149.981 402.625 148.444 399.218C148.309 398.922 148.75 398.657 148.891 398.958C149.639 400.615 150.158 402.35 150.501 404.121C151.415 403.02 152.018 401.701 152.252 400.287C152.308 399.96 152.803 400.1 152.75 400.422C152.481 402.043 151.732 403.56 150.621 404.77C150.922 406.557 151.047 408.381 151.026 410.204C150.969 415.139 149.893 419.933 148.735 424.707C149.832 423.533 151.478 423.014 152.86 422.224C154.574 421.247 155.733 419.57 156.008 417.616C156.055 417.29 156.553 417.43 156.507 417.752ZM134.19 445.693H133.671C133.718 444.551 133.708 443.402 133.634 442.26C133.619 441.974 133.593 441.689 133.567 441.403C133.531 441.471 133.463 441.517 133.359 441.507C129.853 441.143 126.554 439.413 124.289 436.707C124.076 436.457 124.439 436.089 124.652 436.343C126.829 438.941 129.988 440.639 133.359 440.987C133.437 440.997 133.499 441.034 133.536 441.085C133.292 438.675 132.746 436.296 131.785 434.073C130.923 432.068 129.76 430.208 128.477 428.447C128.435 428.462 128.394 428.462 128.342 428.452C125.531 427.636 121.864 428.863 119.651 426.411C119.433 426.162 119.797 425.798 120.015 426.047C120.944 427.076 122.347 427.429 123.682 427.533C125.137 427.642 126.601 427.533 128.03 427.844C127.952 427.745 127.88 427.641 127.802 427.543C126.222 425.475 124.509 423.517 122.877 421.491C122.078 420.488 121.293 419.47 120.561 418.416C119.792 417.309 119.106 416.141 118.701 414.847C118.602 414.531 119.101 414.396 119.2 414.712C119.668 416.208 120.54 417.522 121.455 418.785C122.042 419.6 122.66 420.384 123.283 421.163C124.363 419.48 124.581 417.309 123.787 415.46C123.657 415.159 124.104 414.894 124.234 415.2C125.122 417.273 124.915 419.725 123.632 421.595C123.819 421.829 124.005 422.063 124.198 422.296C126.827 425.491 129.615 428.66 131.528 432.337C131.938 431.236 132.8 430.353 133.284 429.277C134.032 427.605 133.398 425.756 132.837 424.135C132.728 423.818 133.226 423.682 133.335 423.994C133.907 425.641 134.504 427.485 133.865 429.205C133.362 430.561 132.157 431.584 131.866 433.023C132.198 433.709 132.499 434.41 132.759 435.137C133.972 438.53 134.32 442.115 134.19 445.693ZM121.9 445.693H121.37C121.069 444.249 120.508 442.862 119.63 441.667C119.459 441.433 119.267 441.221 119.074 441.003C119.033 441.019 118.986 441.024 118.934 441.013C117.978 440.79 117.132 441.538 116.28 441.839C115.423 442.14 114.482 442.057 113.667 441.667C113.366 441.527 113.631 441.08 113.927 441.226C114.794 441.636 115.729 441.564 116.576 441.153C117.225 440.842 117.869 440.478 118.576 440.468C117.843 439.725 117.017 439.07 116.15 438.494C114.722 437.533 113.184 436.743 111.683 435.907C110.929 435.486 110.161 435.065 109.454 434.566C108.909 434.187 108.41 433.709 108.275 433.034C108.207 432.712 108.706 432.572 108.768 432.899C108.95 433.772 109.859 434.239 110.555 434.66C111.433 435.19 112.337 435.678 113.236 436.171C113.303 436.213 113.371 436.25 113.444 436.286C113.605 435.232 113.48 434.156 113.106 433.159C112.992 432.847 113.491 432.712 113.605 433.019C114.015 434.12 114.119 435.298 113.937 436.457C113.932 436.488 113.917 436.514 113.896 436.54C116.493 437.99 119.116 439.646 120.644 442.27C121.271 443.351 121.666 444.504 121.9 445.693ZM176.36 422.609C176.168 423.331 175.404 423.663 174.771 423.913C174.002 424.209 173.177 424.365 172.355 424.39C172.345 424.39 172.335 424.385 172.324 424.385C172.049 424.733 171.763 425.065 171.472 425.398C169.945 427.117 168.417 428.795 167.129 430.707C165.893 432.535 164.838 434.483 163.971 436.509C163.358 437.937 162.849 439.408 162.433 440.903C164.121 440.042 165.997 439.62 167.711 438.8C169.389 438 171.051 436.628 171.228 434.649C171.259 434.317 171.773 434.317 171.748 434.649C171.566 436.649 170.075 438.145 168.376 439.044C166.413 440.083 164.179 440.478 162.252 441.584C161.904 442.935 161.639 444.312 161.458 445.693H160.933C161.089 444.477 161.312 443.267 161.593 442.072C162.169 439.652 163.011 437.294 164.076 435.044C164.071 435.029 164.061 435.019 164.055 435.003C163.369 432.535 161.557 429.933 162.834 427.341C162.98 427.045 163.427 427.304 163.281 427.6C162.179 429.829 163.671 432.218 164.398 434.369C165.14 432.883 165.983 431.455 166.928 430.089C167.509 429.252 168.133 428.437 168.787 427.653H168.782C167.935 425.715 167.676 423.591 168.034 421.508C168.091 421.181 168.59 421.321 168.532 421.643C168.205 423.513 168.428 425.461 169.161 427.217C169.846 426.417 170.568 425.648 171.264 424.853C172.776 423.128 174.2 421.108 174.298 418.734C174.309 418.401 174.828 418.401 174.813 418.734C174.734 420.656 173.862 422.339 172.74 423.851C173.321 423.799 173.893 423.679 174.444 423.487C174.943 423.305 175.711 423.051 175.867 422.474C175.95 422.151 176.449 422.287 176.36 422.609ZM186.63 438.811C185.394 438.92 184.173 439.216 183.009 439.668C182.957 439.736 182.874 439.766 182.791 439.761C182.568 439.855 182.334 439.943 182.11 440.047C181.108 440.525 180.168 441.128 179.306 441.829C180.9 441.958 182.448 442.384 183.882 443.091C184.178 443.242 183.919 443.683 183.623 443.538C182.147 442.81 180.537 442.39 178.9 442.312C178.853 442.312 178.812 442.296 178.781 442.276C177.706 443.247 176.776 444.379 176.069 445.652C176.064 445.667 176.054 445.678 176.049 445.693H175.472C175.711 445.236 175.966 444.789 176.262 444.358C177.051 443.211 178.012 442.182 179.103 441.319C180.158 440.483 181.327 439.802 182.562 439.294C182.594 438.166 182.801 437.044 183.191 435.985C183.305 435.678 183.804 435.813 183.69 436.125C183.336 437.081 183.139 438.083 183.087 439.096C184.224 438.68 185.414 438.406 186.629 438.296C186.962 438.27 186.962 438.785 186.63 438.811ZM229.545 344.14C229.506 344.14 229.468 344.136 229.429 344.127C228.073 343.823 226.692 343.486 225.323 343.128C225.042 343.054 224.874 342.766 224.948 342.485C225.021 342.204 225.309 342.038 225.59 342.11C226.947 342.466 228.316 342.799 229.659 343.102C229.943 343.165 230.121 343.447 230.057 343.73C230.002 343.974 229.785 344.14 229.545 344.14ZM217.391 340.732C217.335 340.732 217.279 340.724 217.223 340.705C214.582 339.818 211.916 338.826 209.297 337.756C209.028 337.646 208.899 337.339 209.009 337.07C209.118 336.801 209.425 336.671 209.695 336.782C212.293 337.844 214.939 338.828 217.558 339.708C217.834 339.8 217.982 340.098 217.889 340.374C217.815 340.593 217.61 340.732 217.391 340.732ZM201.802 334.37C201.725 334.37 201.647 334.353 201.574 334.317C199.045 333.098 196.522 331.786 194.074 330.416C193.821 330.275 193.73 329.954 193.872 329.7C194.014 329.447 194.334 329.357 194.588 329.498C197.017 330.857 199.521 332.16 202.031 333.37C202.293 333.496 202.402 333.81 202.276 334.072C202.185 334.26 201.998 334.37 201.802 334.37ZM187.108 326.152C187.011 326.152 186.912 326.125 186.824 326.068C184.441 324.537 182.097 322.926 179.857 321.278C179.623 321.106 179.573 320.777 179.745 320.543C179.917 320.309 180.246 320.26 180.48 320.431C182.702 322.066 185.028 323.664 187.393 325.183C187.637 325.34 187.708 325.665 187.551 325.91C187.451 326.067 187.281 326.152 187.108 326.152ZM173.556 316.166C173.436 316.166 173.315 316.125 173.216 316.042C171.025 314.188 168.922 312.269 166.966 310.339C166.759 310.135 166.757 309.802 166.961 309.595C167.165 309.389 167.498 309.386 167.705 309.59C169.642 311.501 171.725 313.402 173.896 315.238C174.118 315.426 174.145 315.758 173.958 315.98C173.853 316.103 173.705 316.166 173.556 316.166ZM161.603 304.322C161.454 304.322 161.305 304.258 161.201 304.136C159.304 301.893 157.581 299.62 156.082 297.38C155.92 297.138 155.985 296.812 156.226 296.65C156.468 296.488 156.794 296.553 156.956 296.794C158.434 299.002 160.133 301.244 162.005 303.456C162.193 303.678 162.164 304.009 161.943 304.198C161.844 304.28 161.723 304.322 161.603 304.322ZM152.352 290.306C152.154 290.306 151.965 290.194 151.875 290.004C150.589 287.26 149.646 284.555 149.073 281.964C149.01 281.68 149.189 281.399 149.472 281.336C149.756 281.275 150.037 281.452 150.1 281.737C150.657 284.252 151.574 286.883 152.828 289.557C152.951 289.82 152.838 290.133 152.575 290.257C152.502 290.29 152.426 290.306 152.352 290.306ZM149.056 274.016C149.036 274.016 149.016 274.015 148.996 274.013C148.708 273.981 148.5 273.721 148.532 273.432C148.859 270.513 149.759 267.773 151.209 265.289C151.356 265.039 151.678 264.953 151.928 265.1C152.179 265.246 152.264 265.569 152.118 265.82C150.742 268.176 149.888 270.776 149.577 273.549C149.547 273.818 149.32 274.016 149.056 274.016ZM157.177 259.783C157.023 259.783 156.872 259.716 156.767 259.588C156.584 259.362 156.62 259.031 156.845 258.848C158.896 257.188 161.341 255.688 164.11 254.39C164.373 254.267 164.686 254.38 164.809 254.643C164.932 254.906 164.819 255.219 164.556 255.342C161.864 256.605 159.492 258.059 157.507 259.666C157.41 259.745 157.293 259.783 157.177 259.783ZM172.239 252.52C172.008 252.52 171.797 252.367 171.733 252.134C171.655 251.854 171.819 251.564 172.1 251.487C174.555 250.81 177.342 250.197 180.382 249.665C180.67 249.617 180.941 249.807 180.991 250.093C181.041 250.379 180.85 250.651 180.564 250.702C177.557 251.228 174.803 251.833 172.379 252.501C172.332 252.514 172.286 252.52 172.239 252.52ZM188.824 249.513C188.561 249.513 188.333 249.316 188.303 249.048C188.269 248.76 188.476 248.499 188.764 248.465C191.357 248.163 194.19 247.889 197.183 247.651C197.474 247.633 197.726 247.845 197.749 248.134C197.772 248.424 197.556 248.677 197.266 248.7C194.286 248.937 191.466 249.209 188.886 249.51C188.865 249.512 188.845 249.513 188.824 249.513ZM205.644 248.145C205.366 248.145 205.134 247.928 205.119 247.648C205.103 247.357 205.325 247.109 205.615 247.094C208.246 246.951 211.006 246.824 214.053 246.708C214.357 246.694 214.588 246.923 214.599 247.213C214.61 247.504 214.383 247.748 214.094 247.759C211.052 247.875 208.298 248.001 205.673 248.144C205.663 248.145 205.653 248.145 205.644 248.145ZM222.507 247.488C222.223 247.488 221.989 247.262 221.981 246.977C221.973 246.686 222.202 246.445 222.492 246.436C225.272 246.361 228.088 246.296 230.931 246.235C231.212 246.241 231.462 246.46 231.468 246.75C231.474 247.041 231.243 247.281 230.953 247.288C228.113 247.348 225.299 247.413 222.522 247.489C222.517 247.488 222.512 247.488 222.507 247.488ZM239.377 247.123C239.091 247.123 238.857 246.894 238.851 246.606C238.846 246.316 239.077 246.077 239.367 246.071L240.917 246.042C243.199 246 245.491 245.957 247.786 245.912C248.072 245.927 248.317 246.137 248.323 246.428C248.328 246.719 248.098 246.959 247.807 246.965C245.511 247.009 243.219 247.052 240.937 247.094L239.387 247.123C239.384 247.123 239.38 247.123 239.377 247.123ZM256.238 246.783C255.953 246.783 255.719 246.556 255.712 246.269C255.705 245.979 255.935 245.738 256.226 245.73C259.043 245.663 261.855 245.587 264.655 245.499C264.936 245.475 265.188 245.717 265.197 246.008C265.206 246.298 264.979 246.541 264.688 246.55C261.886 246.639 259.07 246.715 256.251 246.782C256.246 246.783 256.242 246.783 256.238 246.783ZM273.101 246.238C272.821 246.238 272.588 246.017 272.576 245.735C272.563 245.445 272.788 245.199 273.079 245.187C276.008 245.06 278.839 244.917 281.496 244.761C281.781 244.737 282.034 244.965 282.052 245.255C282.069 245.545 281.848 245.794 281.558 245.81C278.896 245.968 276.059 246.111 273.124 246.238C273.117 246.238 273.109 246.238 273.101 246.238ZM289.943 245.23C289.671 245.23 289.441 245.021 289.419 244.746C289.396 244.456 289.612 244.203 289.901 244.179C292.824 243.945 295.645 243.681 298.286 243.393C298.578 243.362 298.834 243.571 298.865 243.859C298.896 244.148 298.688 244.407 298.399 244.439C295.749 244.727 292.919 244.992 289.986 245.228C289.971 245.229 289.957 245.23 289.943 245.23ZM306.709 243.382C306.452 243.382 306.228 243.194 306.19 242.932C306.147 242.644 306.346 242.378 306.634 242.336C309.542 241.909 312.33 241.429 314.917 240.912C315.204 240.854 315.479 241.04 315.536 241.324C315.594 241.61 315.409 241.886 315.124 241.943C312.517 242.464 309.713 242.946 306.786 243.376C306.76 243.38 306.734 243.382 306.709 243.382ZM323.224 240.019C322.993 240.019 322.782 239.866 322.717 239.634C322.64 239.354 322.803 239.064 323.084 238.986C325.953 238.191 328.622 237.303 331.017 236.347C331.287 236.238 331.592 236.371 331.7 236.64C331.808 236.91 331.677 237.216 331.407 237.324C328.977 238.294 326.271 239.194 323.365 240C323.317 240.013 323.27 240.019 323.224 240.019ZM338.735 233.638C338.559 233.638 338.386 233.549 338.287 233.389C338.134 233.141 338.211 232.817 338.458 232.664C340.982 231.103 343.116 229.361 344.801 227.484C344.995 227.268 345.328 227.249 345.544 227.444C345.76 227.638 345.778 227.971 345.584 228.187C343.833 230.138 341.621 231.946 339.011 233.559C338.925 233.613 338.829 233.638 338.735 233.638ZM349.41 221.26C349.354 221.26 349.297 221.251 349.241 221.232C348.966 221.138 348.819 220.84 348.912 220.565C349.624 218.473 349.985 216.198 349.985 213.803C349.985 213.384 349.975 212.959 349.953 212.529C349.938 212.239 350.161 211.992 350.451 211.977C350.74 211.954 350.988 212.186 351.003 212.476C351.026 212.924 351.037 213.366 351.037 213.803C351.037 216.313 350.657 218.703 349.908 220.904C349.834 221.122 349.629 221.26 349.41 221.26ZM348.925 204.775C348.7 204.775 348.492 204.63 348.422 204.405C348.292 203.985 348.154 203.56 348.006 203.132C347.256 200.946 346.344 198.792 345.296 196.732C345.164 196.473 345.267 196.156 345.526 196.024C345.786 195.894 346.102 195.996 346.233 196.255C347.304 198.359 348.235 200.558 349.001 202.79C349.152 203.228 349.293 203.662 349.427 204.093C349.513 204.37 349.358 204.665 349.08 204.751C349.029 204.767 348.976 204.775 348.925 204.775ZM341.377 189.886C341.214 189.886 341.054 189.811 340.951 189.67C339.361 187.492 337.551 185.359 335.571 183.332C335.368 183.125 335.372 182.791 335.58 182.588C335.788 182.386 336.121 182.389 336.324 182.597C338.338 184.66 340.181 186.831 341.801 189.05C341.972 189.284 341.921 189.614 341.686 189.784C341.593 189.854 341.485 189.886 341.377 189.886ZM329.714 177.857C329.598 177.857 329.482 177.819 329.385 177.742C327.293 176.063 325.012 174.418 322.604 172.851C322.36 172.693 322.292 172.367 322.45 172.124C322.609 171.88 322.934 171.81 323.178 171.97C325.615 173.555 327.924 175.221 330.043 176.921C330.269 177.103 330.306 177.435 330.124 177.661C330.021 177.79 329.868 177.857 329.714 177.857ZM315.647 168.644C315.563 168.644 315.477 168.623 315.398 168.581C313.037 167.303 310.51 166.046 307.886 164.842C307.622 164.721 307.507 164.408 307.628 164.144C307.749 163.88 308.061 163.766 308.325 163.885C310.97 165.099 313.518 166.368 315.898 167.655C316.154 167.794 316.249 168.113 316.11 168.368C316.015 168.545 315.834 168.644 315.647 168.644ZM300.35 161.589C300.285 161.589 300.22 161.577 300.156 161.552C297.644 160.559 294.99 159.578 292.269 158.638C291.994 158.543 291.849 158.244 291.944 157.97C292.039 157.695 292.337 157.549 292.613 157.644C295.348 158.59 298.016 159.575 300.543 160.574C300.813 160.681 300.945 160.987 300.839 161.256C300.757 161.463 300.559 161.589 300.35 161.589ZM284.421 156.062C284.37 156.062 284.319 156.055 284.267 156.038C281.698 155.252 278.98 154.466 276.188 153.7C275.908 153.623 275.743 153.333 275.82 153.053C275.896 152.774 276.186 152.608 276.466 152.686C279.268 153.455 281.996 154.244 284.575 155.033C284.852 155.118 285.009 155.412 284.924 155.69C284.855 155.916 284.646 156.062 284.421 156.062ZM268.155 151.583C268.113 151.583 268.07 151.578 268.028 151.567C265.43 150.92 262.673 150.26 259.833 149.608C259.55 149.542 259.373 149.261 259.438 148.977C259.503 148.695 259.785 148.517 260.068 148.582C262.915 149.236 265.678 149.897 268.282 150.546C268.564 150.616 268.735 150.902 268.665 151.184C268.606 151.423 268.391 151.583 268.155 151.583ZM251.715 147.79C251.679 147.79 251.641 147.786 251.604 147.778C248.824 147.179 246.069 146.6 243.352 146.038C243.068 145.979 242.884 145.7 242.944 145.416C243.003 145.133 243.28 144.95 243.566 145.008C246.286 145.571 249.043 146.149 251.826 146.75C252.11 146.811 252.29 147.091 252.229 147.375C252.176 147.621 251.958 147.79 251.715 147.79ZM235.193 144.356C235.158 144.356 235.123 144.352 235.087 144.345C232.267 143.771 229.505 143.207 226.818 142.649C226.533 142.59 226.351 142.312 226.41 142.028C226.47 141.743 226.748 141.561 227.032 141.619C229.718 142.177 232.478 142.74 235.298 143.315C235.583 143.373 235.766 143.651 235.708 143.935C235.657 144.184 235.437 144.356 235.193 144.356ZM218.672 140.898C218.634 140.898 218.596 140.894 218.558 140.886C215.468 140.203 212.775 139.573 210.325 138.961C210.043 138.891 209.872 138.605 209.942 138.324C210.013 138.042 210.301 137.874 210.58 137.94C213.021 138.55 215.705 139.177 218.785 139.858C219.069 139.921 219.248 140.202 219.185 140.486C219.131 140.731 218.913 140.898 218.672 140.898ZM202.316 136.74C202.265 136.74 202.212 136.733 202.161 136.717C199.045 135.76 196.434 134.815 194.179 133.828C193.913 133.711 193.792 133.401 193.908 133.135C194.025 132.869 194.335 132.746 194.601 132.864C196.818 133.835 199.393 134.766 202.47 135.711C202.748 135.797 202.904 136.091 202.819 136.369C202.749 136.594 202.541 136.74 202.316 136.74ZM187.242 129.541C187.114 129.541 186.987 129.494 186.885 129.401C185.346 127.981 184.364 126.431 183.965 124.798C183.711 123.756 183.56 122.7 183.517 121.658C183.505 121.367 183.731 121.122 184.021 121.111C184.31 121.093 184.556 121.324 184.568 121.615C184.608 122.587 184.749 123.574 184.986 124.548C185.34 125.998 186.194 127.333 187.598 128.629C187.811 128.826 187.825 129.158 187.627 129.372C187.524 129.484 187.383 129.541 187.242 129.541ZM185.897 114.09C185.818 114.09 185.737 114.072 185.662 114.034C185.402 113.904 185.297 113.588 185.427 113.328C186.583 111.027 188.283 108.713 190.478 106.452C190.68 106.243 191.013 106.238 191.222 106.441C191.43 106.643 191.435 106.976 191.232 107.185C189.112 109.369 187.475 111.595 186.367 113.801C186.275 113.984 186.089 114.09 185.897 114.09ZM197.248 101.878C197.085 101.878 196.925 101.803 196.822 101.662C196.651 101.427 196.703 101.098 196.938 100.927C199.059 99.3816 201.455 97.8351 204.061 96.3307C204.313 96.1856 204.634 96.2719 204.78 96.5231C204.925 96.7747 204.838 97.0962 204.587 97.2419C202.013 98.7271 199.648 100.253 197.558 101.777C197.463 101.845 197.355 101.878 197.248 101.878ZM211.779 93.3878C211.583 93.3878 211.395 93.2783 211.304 93.0904C211.178 92.8287 211.288 92.5148 211.55 92.3882C213.969 91.2209 216.566 90.0586 219.268 88.934C219.536 88.8215 219.844 88.9496 219.955 89.2173C220.067 89.4855 219.94 89.7929 219.672 89.9044C216.987 91.022 214.409 92.1763 212.007 93.3351C211.933 93.3707 211.855 93.3878 211.779 93.3878ZM227.324 86.8877C227.11 86.8877 226.908 86.755 226.83 86.5421C226.73 86.2693 226.871 85.9675 227.144 85.8675C229.709 84.9317 232.398 84.0085 235.134 83.1245C235.412 83.0351 235.707 83.1873 235.797 83.463C235.886 83.7393 235.734 84.0356 235.458 84.1251C232.734 85.0056 230.058 85.9243 227.505 86.8555C227.445 86.8776 227.384 86.8877 227.324 86.8877ZM243.359 81.694C243.13 81.694 242.92 81.5438 242.853 81.3132C242.773 81.034 242.934 80.7426 243.213 80.6623C245.884 79.8948 248.626 79.1524 251.364 78.4542C251.647 78.3819 251.931 78.5526 252.004 78.8339C252.075 79.1152 251.905 79.402 251.624 79.4733C248.896 80.169 246.164 80.9089 243.504 81.6734C243.456 81.6874 243.406 81.694 243.359 81.694ZM259.693 77.5219C259.452 77.5219 259.235 77.3562 259.18 77.1116C259.116 76.8278 259.294 76.5465 259.577 76.4827C262.314 75.8669 265.095 75.2817 267.841 74.7448C268.125 74.688 268.402 74.8754 268.458 75.1597C268.514 75.445 268.328 75.7212 268.043 75.777C265.306 76.3124 262.536 76.8951 259.808 77.5089C259.77 77.5179 259.731 77.5219 259.693 77.5219ZM276.237 74.2892C275.983 74.2892 275.761 74.1064 275.718 73.8492C275.671 73.5624 275.865 73.2917 276.152 73.2444C278.97 72.7783 281.78 72.3594 284.506 71.9983C284.793 71.9606 285.058 72.1625 285.096 72.4508C285.134 72.7386 284.932 73.0028 284.644 73.041C281.93 73.4007 279.13 73.8181 276.323 74.2822C276.294 74.2872 276.265 74.2892 276.237 74.2892ZM292.959 72.0917C292.691 72.0917 292.462 71.8873 292.436 71.6145C292.409 71.3252 292.621 71.069 292.911 71.0419C294.348 70.9078 295.763 70.7913 297.116 70.6958C297.41 70.6722 297.658 70.8937 297.678 71.183C297.698 71.4729 297.48 71.7245 297.19 71.7446C295.844 71.84 294.437 71.9561 293.009 72.0897C292.992 72.0912 292.975 72.0917 292.959 72.0917Z"
        fill="#194C85" />
    <path
        d="M234.15 166.652C234.15 166.652 229.086 167.453 226.175 160.997C223.263 154.541 216.117 153.863 214.276 153.93C209.876 154.088 203.579 156.145 205.478 157.411C207.377 158.677 216.072 153.945 213.347 161.968C211.048 168.741 215.822 170.421 221.307 170.906C223.691 171.116 228.327 174.88 228.327 174.88L234.15 166.652ZM216.243 83.2554C216.243 83.2554 211.315 81.8429 211.403 74.7616C211.491 67.6803 205.301 64.0468 203.603 63.329C199.549 61.6142 192.972 60.8186 194.159 62.7679C195.345 64.7173 205.225 64.1015 199.367 70.2229C194.421 75.39 198.038 78.9301 202.806 81.6857C204.879 82.8837 207.49 88.2537 207.49 88.2537L216.243 83.2554Z"
        fill="#F1CCCD" />
    <path
        d="M311.053 173.884C312.03 166.654 319.795 160.606 317.839 153.577C317.35 151.821 316.279 150.29 315.16 148.852C310.173 142.442 303.553 136.469 302.576 128.407C301.988 123.553 303.599 118.738 304.284 113.897C304.97 109.055 304.429 103.459 300.651 100.354C297.147 97.4739 291.94 97.6361 288.205 95.0609C284.529 92.5253 282.639 87.5823 278.424 86.1055C276.606 85.4691 274.604 85.5982 272.716 85.9815C261.628 88.2337 253.406 100.033 255.134 111.215C255.65 114.551 259.417 117.568 262.711 118.307C259.518 128.159 256.236 137.881 261.013 144.578C258.438 146.22 258.535 150.106 259.846 152.864C261.157 155.622 263.348 157.967 264.174 160.908C266.155 167.963 259.705 174.568 258.802 181.841C257.871 189.339 264.015 196.977 271.539 197.675C274.193 197.921 276.863 197.415 279.527 197.496C285.728 197.685 291.357 200.989 297.35 202.593C303.343 204.196 311.03 203.345 313.857 197.823C317.602 190.51 309.953 182.026 311.053 173.884Z"
        fill="#3D415F" />
    <path
        d="M258.167 167.865C245.482 163.432 222.179 142.568 216.37 132.725C213.311 125.404 199.676 83.1053 199.676 83.1053C203.524 81.4297 210.841 78.3361 215.035 77.7886C215.037 77.7886 231.154 122.01 231.154 122.01C237.068 125.834 264.675 140.48 264.675 140.48C264.675 140.48 270.633 172.222 258.167 167.865Z"
        fill="#FFE164" />
    <path
        d="M268.17 337.089C270.917 355.966 272.729 391.444 266.151 415.813L263.841 426.787L255.379 431.192L256.415 418.458C252.986 386.787 240.939 336.955 240.547 332.196C238.237 305.025 254.646 230.28 255.701 225.441L255.745 225.256L255.759 225.187L291.05 222.701C307.27 277.82 284.595 289.084 268.17 337.089Z"
        fill="#EDC0C1" />
    <path
        d="M268.17 337.089C270.917 355.966 272.729 391.444 266.151 415.813L263.841 426.787L255.379 431.192L256.415 418.458C252.986 386.787 240.939 336.955 240.547 332.196C238.237 305.025 254.646 230.28 255.701 225.441L255.745 225.256L255.759 225.187L291.05 222.701C307.27 277.82 284.595 289.084 268.17 337.089Z"
        fill="#3D415F" fill-opacity="0.8" />
    <path
        d="M303.306 435.744L309.719 417.476C305.686 393.988 288.545 355.793 279.694 343.739C263.227 321.309 264.116 215.562 264.116 215.562L296.432 222.517C313.988 251.223 300.004 326.357 307.829 339.491C316.332 353.765 321.196 389.27 319.622 417.359L320.324 427.699L303.306 435.744Z"
        fill="#F1CCCD" />
    <path
        d="M303.306 435.744L309.719 417.476C305.686 393.988 288.545 355.793 279.694 343.739C263.227 321.309 264.116 215.562 264.116 215.562L296.432 222.517C313.988 251.223 300.004 326.357 307.829 339.491C316.332 353.765 321.196 389.27 319.622 417.359L320.324 427.699L303.306 435.744Z"
        fill="#3D415F" fill-opacity="0.7" />
    <path
        d="M255.731 204.693L298.584 205.434L299.888 211.839L299.952 217.086C312.341 242.144 316.686 275.723 330.206 304.365C330.206 304.365 321.341 313.413 313.019 311.536C313.019 311.536 303.791 324.455 289.318 315.536C278.342 321.803 267.367 321.803 256.39 315.536C241.917 324.455 232.69 311.536 232.69 311.536C224.368 313.413 215.502 304.365 215.502 304.365L255.731 204.693ZM322.824 426.936C322.317 429.999 321.435 445 321.73 446.18L318.539 446.778L316.913 433.889C316.913 433.889 312.729 435.187 310.74 438.672C308.75 442.156 307.448 445.213 302.436 445.893C297.423 446.572 289.971 447.962 290.259 444.758C290.547 441.554 301.206 434.914 304.225 429.493C307.578 423.473 309.295 416.617 309.295 416.617C313.214 417.98 315.857 417.827 319.442 415.876C319.442 415.876 323.331 423.872 322.824 426.936ZM269.56 426.863C269.061 429.928 268.21 444.933 268.508 446.11L265.317 446.717L263.667 433.833C263.667 433.833 259.486 435.14 257.506 438.63C255.525 442.12 254.23 445.181 249.22 445.873C244.209 446.564 236.761 447.974 237.041 444.769C237.32 441.565 247.962 434.898 250.968 429.469C254.305 423.441 256.005 416.581 256.005 416.581C259.927 417.934 262.57 417.775 266.151 415.814C266.151 415.813 270.06 423.799 269.56 426.863Z"
        fill="#3D415F" />
    <path
        d="M301.232 219.489C289.662 223.749 252.481 235.958 248.327 218.468C248.327 218.468 247.948 163.88 254.744 151.598C259.332 143.306 264.383 139.986 264.383 139.986C264.383 139.986 278.806 139.115 279.202 139.456C286.181 140.888 293.147 143.256 296.937 147.918C310.26 164.309 295.608 205.478 301.232 219.489Z"
        fill="#FFB864" />
    <path
        d="M277.545 125.34L279.163 139.458C275.084 144.825 271.522 144.873 268.495 139.544L268.726 135.85L269.237 127.433L277.545 125.34Z"
        fill="#F1CCCD" />
    <path
        d="M263.466 97.709C263.466 97.709 252.879 123.355 258.949 129.008C265.173 134.803 275.236 133.736 280.228 126.468C280.228 126.468 287.735 125.487 286.96 119.498C286.185 113.508 280.495 118.157 280.495 118.157C280.495 118.157 266.931 110.915 263.466 97.709Z"
        fill="#F1CCCD" />
    <path
        d="M284.347 149.859C276.665 157.065 272.854 188.172 272.854 188.172L229.909 163.045L222.883 173.805C222.883 173.805 266.26 214.84 282.463 208.764C292.058 205.166 301.776 180.076 302.059 162.131C302.254 149.773 294.165 140.649 284.347 149.859Z"
        fill="#FFE164" />
    <path
        d="M222.017 72.0615H161.696C158.667 72.0615 156.21 69.6058 156.21 66.576V39.8979C156.21 36.8686 158.666 34.4124 161.696 34.4124H222.018C225.047 34.4124 227.503 36.8681 227.503 39.8979V66.576C227.503 69.6058 225.047 72.0615 222.017 72.0615Z"
        fill="#C9E3FF" />
    <path
        d="M180.685 43.6346H163.112C162.732 43.6346 162.423 43.3262 162.423 42.946C162.423 42.5657 162.732 42.2573 163.112 42.2573H180.685C181.065 42.2573 181.374 42.5657 181.374 42.946C181.374 43.3262 181.065 43.6346 180.685 43.6346ZM211.725 43.6346H184.498C184.118 43.6346 183.809 43.3262 183.809 42.946C183.809 42.5657 184.118 42.2573 184.498 42.2573H211.725C212.105 42.2573 212.413 42.5657 212.413 42.946C212.413 43.3262 212.105 43.6346 211.725 43.6346ZM221.914 43.6346H216.201C215.87 43.6346 215.602 43.3664 215.602 43.0354C215.602 42.7044 215.87 42.4361 216.201 42.4361H221.914C222.245 42.4361 222.513 42.7044 222.513 43.0354C222.513 43.3664 222.245 43.6346 221.914 43.6346ZM221.825 50.7506H163.112C162.732 50.7506 162.424 50.4421 162.424 50.0619C162.424 49.6817 162.732 49.3733 163.112 49.3733H221.825C222.205 49.3733 222.513 49.6817 222.513 50.0619C222.513 50.4421 222.205 50.7506 221.825 50.7506ZM180.685 64.217H163.112C162.732 64.217 162.423 63.9086 162.423 63.5283C162.423 63.1481 162.732 62.8397 163.112 62.8397H180.685C181.065 62.8397 181.374 63.1481 181.374 63.5283C181.374 63.9086 181.065 64.217 180.685 64.217ZM211.725 64.217H184.498C184.118 64.217 183.809 63.9086 183.809 63.5283C183.809 63.1481 184.118 62.8397 184.498 62.8397H211.725C212.105 62.8397 212.413 63.1481 212.413 63.5283C212.413 63.9086 212.105 64.217 211.725 64.217ZM192.328 57.1015H163.112C162.732 57.1015 162.424 56.7931 162.424 56.4129C162.424 56.0326 162.732 55.7242 163.112 55.7242H192.328C192.708 55.7242 193.017 56.0326 193.017 56.4129C193.017 56.7931 192.708 57.1015 192.328 57.1015ZM221.825 57.1015H199.329C198.949 57.1015 198.64 56.7931 198.64 56.4129C198.64 56.0326 198.949 55.7242 199.329 55.7242H221.824C222.204 55.7242 222.513 56.0326 222.513 56.4129C222.513 56.7931 222.205 57.1015 221.825 57.1015ZM221.914 64.217H216.201C215.87 64.217 215.602 63.9487 215.602 63.6177C215.602 63.2867 215.87 63.0185 216.201 63.0185H221.914C222.245 63.0185 222.513 63.2867 222.513 63.6177C222.513 63.9487 222.245 64.217 221.914 64.217Z"
        fill="white" />
    <path d="M303.366 70.5898L322.587 70.7018L316.296 61.303L303.366 70.5898Z" fill="#2A66A8" />
    <path d="M321.258 73.8501L345.812 65.1414L314.801 65.4287L321.258 73.8501Z" fill="#5C96D6" />
    <path d="M345.835 65.1101L306.42 49.3733L312.385 57.969L345.835 65.1101Z" fill="#5C96D6" />
    <path d="M345.813 65.1417L314.739 65.516L303.366 70.5901L312.376 57.8274L345.813 65.1417Z"
        fill="#3E7ABD" />
    <path
        d="M52.9498 263.661C53.1587 263.999 53.2256 264.406 53.1276 264.807C52.998 265.336 52.6087 265.743 52.0864 265.896L47.0393 267.368C46.5165 267.52 45.9695 267.386 45.5757 267.01C45.1829 266.633 45.0247 266.093 45.1543 265.564L46.4029 260.457C46.532 259.928 46.9218 259.521 47.4447 259.369C47.9676 259.217 48.5146 259.35 48.9079 259.727L52.7062 263.362C52.8011 263.452 52.883 263.553 52.9498 263.661ZM46.3442 266.086C46.3628 266.116 46.3829 266.138 46.3969 266.152C46.4366 266.19 46.5471 266.274 46.7063 266.228L51.7533 264.756C51.9126 264.709 51.9608 264.579 51.9738 264.525C51.9869 264.472 52.005 264.335 51.8844 264.219L48.0861 260.584C47.9661 260.469 47.8295 260.493 47.7767 260.508C47.7235 260.524 47.5959 260.577 47.5562 260.739L46.3075 265.845C46.2819 265.95 46.3105 266.032 46.3442 266.086ZM469.99 251.361C470.199 251.699 470.266 252.106 470.168 252.507C470.039 253.035 469.649 253.442 469.127 253.595L464.08 255.067C463.557 255.22 463.01 255.086 462.616 254.71C462.223 254.333 462.065 253.792 462.194 253.263L463.443 248.157C463.572 247.627 463.962 247.221 464.485 247.068C465.008 246.916 465.555 247.05 465.948 247.426L469.746 251.061C469.841 251.152 469.923 251.253 469.99 251.361ZM463.384 253.786C463.403 253.816 463.423 253.838 463.437 253.852C463.477 253.89 463.587 253.974 463.746 253.927L468.794 252.455C468.953 252.409 469.001 252.278 469.014 252.225C469.027 252.171 469.045 252.034 468.925 251.919L465.126 248.284C465.006 248.169 464.87 248.192 464.817 248.208C464.764 248.223 464.636 248.277 464.596 248.438L463.348 253.545C463.322 253.65 463.35 253.731 463.384 253.786Z"
        fill="#006A63" />
    <path
        d="M103.511 352.524L105.368 350.667C105.789 350.246 105.789 349.563 105.368 349.142C104.947 348.72 104.263 348.72 103.842 349.142L101.985 350.998L100.129 349.142C99.708 348.72 99.0239 348.72 98.6029 349.142C98.1815 349.563 98.1815 350.246 98.6029 350.667L100.459 352.524L98.6064 354.377C98.185 354.798 98.185 355.481 98.6064 355.903C98.8169 356.114 99.0932 356.219 99.3694 356.219C99.6457 356.219 99.9219 356.114 100.132 355.903L101.986 354.049L103.839 355.903C104.049 356.114 104.326 356.219 104.602 356.219C104.878 356.219 105.154 356.114 105.365 355.903C105.786 355.481 105.786 354.798 105.365 354.377L103.511 352.524ZM388.99 165.548L390.846 163.692C391.268 163.27 391.268 162.587 390.846 162.166C390.425 161.744 389.741 161.744 389.32 162.166L387.464 164.022L385.607 162.166C385.186 161.744 384.502 161.744 384.081 162.166C383.66 162.587 383.66 163.27 384.081 163.692L385.938 165.548L384.085 167.401C383.663 167.823 383.663 168.506 384.085 168.927C384.295 169.138 384.571 169.243 384.848 169.243C385.124 169.243 385.4 169.138 385.611 168.927L387.464 167.074L389.318 168.927C389.528 169.138 389.804 169.243 390.081 169.243C390.357 169.243 390.633 169.138 390.844 168.927C391.265 168.506 391.265 167.823 390.844 167.401L388.99 165.548Z"
        fill="#FFE164" />
    <path
        d="M116.822 160.302C114.484 160.302 112.582 158.4 112.582 156.062C112.582 153.723 114.484 151.821 116.822 151.821C119.16 151.821 121.062 153.723 121.062 156.062C121.062 158.399 119.16 160.302 116.822 160.302ZM116.822 153.148C115.216 153.148 113.909 154.455 113.909 156.061C113.909 157.667 115.216 158.974 116.822 158.974C118.428 158.974 119.735 157.667 119.735 156.061C119.735 154.455 118.428 153.148 116.822 153.148ZM359.417 416.453C357.079 416.453 355.177 414.55 355.177 412.212C355.177 409.874 357.079 407.972 359.417 407.972C361.756 407.972 363.658 409.874 363.658 412.212C363.658 414.55 361.756 416.453 359.417 416.453ZM359.417 409.298C357.811 409.298 356.504 410.605 356.504 412.212C356.504 413.818 357.811 415.125 359.417 415.125C361.024 415.125 362.331 413.818 362.331 412.212C362.331 410.606 361.024 409.298 359.417 409.298Z"
        fill="#2363A8" />
</svg>